<?xml version="1.0" encoding="utf-8"?>
<!-- Generator: Adobe Illustrator 25.4.0, SVG Export Plug-In . SVG Version: 6.00 Build 0)  -->
<svg version="1.1" id="Layer_1" xmlns="http://www.w3.org/2000/svg" xmlns:xlink="http://www.w3.org/1999/xlink" x="0px" y="0px"
	 viewBox="0 0 255.12 91.71" style="enable-background:new 0 0 255.12 91.71;" xml:space="preserve">
<style type="text/css">
	.st0{fill:#FFFFFF;}
	.st1{fill:#181818;}
	.st2{fill:#3BB4B8;}
</style>
<g>
	<path class="st1" d="M47.89,37.85v21.79h-6.96V37.85h-8.94v-6.22h24.8v6.22H47.89z"/>
	<path class="st1" d="M177.52,40.32h-7c-0.37-2.1-1.69-3.54-4.53-3.54c-2.39,0-4,0.99-4,2.8c0,1.52,1.11,2.18,3.21,2.64l3.91,0.91
		c5.11,1.11,8.45,3.17,8.45,7.99c0,5.6-4.61,9.1-11.62,9.1c-6.3,0-11.99-2.97-12.65-9.89h6.96c0.45,2.47,2.6,3.96,5.89,3.96
		c2.6,0,3.95-0.95,3.95-2.47c0-0.95-0.58-1.94-2.97-2.39l-4.61-1.03c-5.52-1.19-8.12-3.79-8.12-8.24c0-5.6,4.53-9.15,11.12-9.15
		C170.06,31.01,176.82,32.78,177.52,40.32z"/>
	<path class="st1" d="M189.35,59.64h-6.96V31.63h6.96V59.64z"/>
	<path class="st1" d="M201.99,54.82l-1.85,4.82h-7.42l11.91-28.18h6.63l11.87,28.18h-7.37l-1.9-4.82H201.99z M207.93,39.58
		l-3.63,9.31h7.25L207.93,39.58z"/>
	<path class="st1" d="M58.6,45.74c0,7.33,5.94,13.28,13.28,13.28c7.33,0,13.28-5.94,13.28-13.28c0-7.33-5.94-13.28-13.28-13.28
		C64.55,32.46,58.6,38.4,58.6,45.74z M66.33,45.64c0-3.05,2.47-5.52,5.52-5.52c3.05,0,5.52,2.47,5.52,5.52
		c0,3.05-2.47,5.52-5.52,5.52C68.8,51.16,66.33,48.69,66.33,45.64z"/>
	<path class="st1" d="M123.99,45.74c0,7.33,5.94,13.28,13.28,13.28s13.28-5.94,13.28-13.28c0-7.33-5.94-13.28-13.28-13.28
		S123.99,38.4,123.99,45.74z M131.72,45.64c0-3.05,2.47-5.52,5.52-5.52s5.52,2.47,5.52,5.52c0,3.05-2.47,5.52-5.52,5.52
		S131.72,48.69,131.72,45.64z"/>
	<path class="st2" d="M119.69,53.05h-6.96v-9.63l-6.22,9.6v0.04h-3.87v-0.04l-6.26-9.68l0.04,9.72h-6.96V31.1h6.92l8.2,12.61
		l8.16-12.61h6.96V53.05z"/>
	<path class="st2" d="M104.57,64.71c-4.69,0-9.11-2.28-11.83-6.11l4.21-3c1.76,2.47,4.61,3.94,7.62,3.94c3.02,0,5.87-1.47,7.62-3.94
		l4.21,3C113.68,62.42,109.26,64.71,104.57,64.71z"/>
</g>
</svg>
