<?xml version="1.0" encoding="utf-8"?>
<!-- Generator: Adobe Illustrator 25.4.0, SVG Export Plug-In . SVG Version: 6.00 Build 0)  -->
<svg version="1.1" id="Layer_1" xmlns="http://www.w3.org/2000/svg" xmlns:xlink="http://www.w3.org/1999/xlink" x="0px" y="0px"
	 viewBox="0 0 150 150" style="enable-background:new 0 0 150 150;" xml:space="preserve">
<style type="text/css">
	.st0{fill:#FFFFFF;}
	.st1{fill:#181818;}
	.st2{fill:#3BB4B8;}
</style>
<g>
	<g>
		<path class="st2" d="M102.27,70.81H89.71V53.44L78.49,70.75v0.07h-6.98v-0.07L60.21,53.29l0.07,17.52H47.73v-39.6h12.48L75,53.95
			l14.71-22.74h12.56V70.81z"/>
		<path class="st2" d="M75,91.83c-8.45,0-16.43-4.12-21.34-11.01l7.59-5.4c3.17,4.45,8.31,7.1,13.75,7.1
			c5.44,0,10.58-2.65,13.75-7.1l7.59,5.4C91.43,87.71,83.45,91.83,75,91.83z"/>
	</g>
	<g>
		<path d="M26.58,105.39v12.9h-4.12v-12.9h-5.29v-3.68h14.68v3.68H26.58z"/>
		<path d="M105.83,106.85h-4.15c-0.22-1.24-1-2.1-2.68-2.1c-1.41,0-2.37,0.59-2.37,1.66c0,0.9,0.66,1.29,1.9,1.56l2.32,0.54
			c3.02,0.66,5,1.88,5,4.73c0,3.32-2.73,5.39-6.88,5.39c-3.73,0-7.1-1.76-7.49-5.85h4.12c0.27,1.46,1.54,2.34,3.49,2.34
			c1.54,0,2.34-0.56,2.34-1.46c0-0.56-0.34-1.15-1.76-1.41l-2.73-0.61c-3.27-0.71-4.8-2.24-4.8-4.88c0-3.32,2.68-5.41,6.58-5.41
			C101.42,101.34,105.42,102.39,105.83,106.85z"/>
		<path d="M112.83,118.29h-4.12v-16.58h4.12V118.29z"/>
		<path d="M120.32,115.44l-1.1,2.85h-4.39l7.05-16.68h3.93l7.02,16.68h-4.37l-1.12-2.85H120.32z M123.83,106.42l-2.15,5.51h4.29
			L123.83,106.42z"/>
		<path d="M32.55,110.06c0,4.82,3.9,8.72,8.72,8.72c4.82,0,8.72-3.9,8.72-8.72c0-4.82-3.9-8.72-8.72-8.72
			C36.46,101.34,32.55,105.25,32.55,110.06z M36.67,110c0-2.53,2.05-4.58,4.58-4.58c2.53,0,4.58,2.05,4.58,4.58
			c0,2.53-2.05,4.58-4.58,4.58C38.72,114.58,36.67,112.53,36.67,110z"/>
		<path d="M72.23,110.06c0,4.82,3.9,8.72,8.72,8.72s8.72-3.9,8.72-8.72c0-4.82-3.9-8.72-8.72-8.72S72.23,105.25,72.23,110.06z
			 M76.34,110c0-2.53,2.05-4.58,4.58-4.58c2.53,0,4.58,2.05,4.58,4.58c0,2.53-2.05,4.58-4.58,4.58
			C78.4,114.58,76.34,112.53,76.34,110z"/>
		<path d="M70.06,118.29h-4.12v-9.6l-3.68,5.68v0.02h-2.29v-0.02l-3.71-5.73l0.02,9.65h-4.12v-16.9h4.1l4.85,7.46l4.83-7.46h4.12
			V118.29z"/>
	</g>
</g>
</svg>
